<?xml version="1.0" encoding="UTF-8"?>
<svg id="_Слой_1" data-name="Слой 1" xmlns="http://www.w3.org/2000/svg" viewBox="0 0 90.78 96">
  <defs>
    <style>
      .cls-1 {
        fill: #e6bfff;
      }

      .cls-1, .cls-2 {
        stroke-width: 0px;
      }

      .cls-2 {
        fill: #f7e6d8;
      }
    </style>
  </defs>
  <path class="cls-2" d="m32.72,67.72v-5.03h-3.98c-1.39,0-2.56-.35-3.51-1.04-.95-.7-1.42-2.4-1.42-5.12v-16.03l4.17-3.32,12.8,21.82c1.14,2.02,2.42,3.67,3.84,4.93,1.42,1.27,3.45,2.21,6.07,2.84,2.62.63,6.34.95,11.14.95h5.12v-5.03h-.38c-2.09,0-3.94-.55-5.55-1.66-1.61-1.11-3.37-3.11-5.26-6.02l-17.64-27.98,12.52-13.75c2.21-2.47,4.41-4.47,6.59-6.02,2.18-1.55,5.27-2.33,7.8-2.33V0h-26.43v4.93c1.96,0,3.33.19,4.13.57.79.38,1.19,1.11,1.19,2.18,0,1.33-.39,2.72-1.19,4.17-.79,1.46-2.2,3.26-4.22,5.41l-14.7,16.03V11.19c0-2.72.47-4.42,1.42-5.12.95-.7,2.12-1.04,3.51-1.04h0V0H0v5.03h3.98c1.33,0,2.47.33,3.42,1,.95.66,1.42,2.26,1.42,4.79v46.19c0,2.53-.48,4.11-1.42,4.74-.95.63-2.09.95-3.42.95H0v5.03h32.72Z"/>
  <path class="cls-1" d="m56.54,96v-5.03h-3.98c-1.39,0-2.56-.35-3.51-1.04-.95-.7-1.42-2.4-1.42-5.12v-16.03l4.17-3.32,12.8,21.82c1.14,2.02,2.42,3.67,3.84,4.93,1.42,1.27,3.45,2.21,6.07,2.84,2.62.63,6.34.95,11.14.95h5.12v-5.03h-.38c-2.09,0-3.94-.55-5.55-1.66-1.61-1.11-3.37-3.11-5.26-6.02l-17.64-27.98,12.52-13.75c2.21-2.47,4.41-4.47,6.59-6.02,2.18-1.55,5.27-2.33,7.8-2.33v-4.92h-26.43v4.93c1.96,0,3.33.19,4.13.57.79.38,1.19,1.11,1.19,2.18,0,1.33-.39,2.72-1.19,4.17-.79,1.46-2.2,3.26-4.22,5.41l-14.7,16.03v-22.1c0-2.72.47-4.42,1.42-5.12.95-.7,2.12-1.04,3.51-1.04h.29v-5.03h-29.03v5.03h3.98c1.33,0,2.47.33,3.42,1,.95.66,1.42,2.26,1.42,4.79v46.19c0,2.53-.48,4.11-1.42,4.74-.95.63-2.09.95-3.42.95h-3.98v5.03h32.72Z"/>
</svg>