<?xml version="1.0" encoding="UTF-8"?>
<svg id="_Слой_1" data-name="Слой 1" xmlns="http://www.w3.org/2000/svg" xmlns:xlink="http://www.w3.org/1999/xlink" viewBox="0 0 71.18 89.69">
    <linearGradient id="Degradado_sin_nombre_17" data-name="Degradado sin nombre 17" x1="11.81" y1="28.15" x2="35.59" y2="28.15" gradientUnits="userSpaceOnUse">
      <stop offset=".16" stop-color="#00bbfa"/>
      <stop offset=".34" stop-color="#0bcae5"/>
      <stop offset=".71" stop-color="#28f3b1"/>
      <stop offset=".81" stop-color="#31ffa2"/>
    </linearGradient>
    <linearGradient id="Degradado_sin_nombre_17-2" data-name="Degradado sin nombre 17" x1="35.59" x2="59.36" xlink:href="#Degradado_sin_nombre_17"/>
    <linearGradient id="Degradado_sin_nombre_17-3" data-name="Degradado sin nombre 17" x1="35.59" y1="56.69" x2="71.18" y2="56.69" xlink:href="#Degradado_sin_nombre_17"/>
    <linearGradient id="Degradado_sin_nombre_17-4" data-name="Degradado sin nombre 17" x1="35.59" y1="69.04" x2="71.18" y2="69.04" xlink:href="#Degradado_sin_nombre_17"/>
  </defs>
  <g class="cls-6">
    <g>
      <polygon class="cls-1" points="11.81 43.16 11.81 34.85 35.59 13.13 35.59 21.44 11.81 43.16"/>
      <polygon class="cls-4" points="35.59 21.44 35.59 13.13 59.36 34.85 59.36 43.16 35.59 21.44"/>
    </g>
    <path class="cls-3" d="m35.59,65.02L0,32.51,35.59,0l35.59,32.51-35.59,32.51ZM10.5,32.51l25.09,22.92,25.09-22.92-25.09-22.92-25.09,22.92"/>
    <polygon class="cls-2" points="35.59 77.33 35.59 68.56 71.18 36.05 71.18 44.82 35.59 77.33"/>
    <polygon class="cls-3" points="0 44.82 0 36.05 35.59 68.56 35.59 77.33 0 44.82"/>
  </g>
  <g class="cls-6">
    <polygon class="cls-5" points="35.59 89.69 35.59 80.91 71.18 48.4 71.18 57.18 35.59 89.69"/>
    <polygon class="cls-3" points="0 57.18 0 48.4 35.59 80.91 35.59 89.69 0 57.18"/>
  </g>
</svg>