<?xml version="1.0" encoding="UTF-8"?>
<svg xmlns="http://www.w3.org/2000/svg" viewBox="0 0 128 66.64">
  <defs>
    <style>
      .cls-1 {
        stroke-width: 0px;
      }
    </style>
  </defs>
  <path class="cls-1" d="m95.8,66.64v-4.95h3.92c1.37,0,2.52-.34,3.45-1.03.93-.68,1.4-2.36,1.4-5.04v-15.77l-4.11-3.27-12.6,21.47c-1.12,1.99-2.38,3.61-3.78,4.85-1.4,1.25-3.39,2.18-5.97,2.8-2.58.62-6.24.93-10.97.93h-5.04v-4.95h.37c2.05,0,3.87-.54,5.46-1.63,1.59-1.09,3.31-3.06,5.18-5.93l17.36-27.53-12.32-13.53c-2.18-2.43-4.34-4.4-6.49-5.93-2.15-1.52-5.18-2.3-7.67-2.3V0h26.01v4.85c-1.93,0-3.28.19-4.06.56-.78.37-1.17,1.09-1.17,2.15,0,1.31.39,2.68,1.17,4.11.78,1.43,2.16,3.21,4.15,5.32l14.47,15.77V11.01c0-2.67-.47-4.35-1.4-5.04-.93-.68-2.08-1.03-3.45-1.03h-.29V0h28.57v4.95h-3.92c-1.31,0-2.43.33-3.36.98-.93.65-1.4,2.23-1.4,4.71v45.45c0,2.49.47,4.05,1.4,4.67.93.62,2.05.93,3.36.93h3.92v4.95h-32.2Z"/>
  <path class="cls-1" d="m32.2,66.64v-4.95h-3.92c-1.37,0-2.52-.34-3.45-1.03-.93-.68-1.4-2.36-1.4-5.04v-15.77l4.11-3.27,12.6,21.47c1.12,1.99,2.38,3.61,3.78,4.85,1.4,1.25,3.39,2.18,5.97,2.8,2.58.62,6.24.93,10.97.93h5.04v-4.95h-.37c-2.05,0-3.87-.54-5.46-1.63-1.59-1.09-3.31-3.06-5.18-5.93l-17.36-27.53,12.32-13.53c2.18-2.43,4.34-4.4,6.49-5.93,2.15-1.52,5.18-2.3,7.67-2.3V0h-26.01v4.85c1.93,0,3.28.19,4.06.56.78.37,1.17,1.09,1.17,2.15,0,1.31-.39,2.68-1.17,4.11-.78,1.43-2.16,3.21-4.15,5.32l-14.47,15.77V11.01c0-2.67.47-4.35,1.4-5.04.93-.68,2.08-1.03,3.45-1.03h0V0H0v4.95h3.92c1.31,0,2.43.33,3.36.98.93.65,1.4,2.23,1.4,4.71v45.45c0,2.49-.47,4.05-1.4,4.67-.93.62-2.05.93-3.36.93H0v4.95h32.2Z"/>
</svg>