<svg width="24" height="24" viewBox="0 0 24 24" fill="none" xmlns="http://www.w3.org/2000/svg">
<path d="M13.26 3.00001C8.17003 2.86001 4.00003 6.95001 4.00003 12H2.21003C1.76003 12 1.54003 12.54 1.86003 12.85L4.65003 15.65C4.85003 15.85 5.16003 15.85 5.36003 15.65L8.15003 12.85C8.21913 12.7795 8.26582 12.6901 8.28421 12.5932C8.30261 12.4962 8.29187 12.3959 8.25338 12.305C8.21488 12.2141 8.15033 12.1366 8.06788 12.0824C7.98542 12.0281 7.88874 11.9994 7.79003 12H6.00003C6.00003 8.10001 9.18003 4.95001 13.1 5.00001C16.82 5.05001 19.95 8.18001 20 11.9C20.05 15.81 16.9 19 13 19C11.39 19 10.6734 18.86 9.49338 17.93C9.30184 17.7791 9.06152 17.7039 8.81814 17.7186C8.57476 17.7334 8.34529 17.8371 8.17338 18.01C7.75338 18.43 7.78338 19.14 8.25338 19.5C9.8245 20.7425 10.997 21.0058 13 21C18.05 21 22.14 16.83 22 11.74C21.87 7.05001 17.95 3.13001 13.26 3.00001ZM12.75 8.00001C12.34 8.00001 12 8.34001 12 8.75001V12.43C12 12.78 12.19 13.11 12.49 13.29L15.61 15.14C15.97 15.35 16.43 15.23 16.64 14.88C16.85 14.52 16.73 14.06 16.38 13.85L13.5 12.14V8.74001C13.5 8.34001 13.16 8.00001 12.75 8.00001Z" fill="black" fill-opacity="0.8"/>
</svg>
